# xmcd
#
# Track frame offsets:
#	150
#	23437
#	41091
#	60146
#	78251
#	91106
#	105334
#	122104
#	139708
#	152452
#
# Disc length: 2268 seconds
#
# Revision: 1
# Processed by: cddbd v1.5.2PL0 Copyright (c) Steve Scherf et al.
# Submitted via: audiograbber 1.82.01
#
DISCID=6308da0a
DTITLE=MacNeil, Rita - Songs Of Praise
DYEAR=2006
DGENRE=Rock
TTITLE0=Higher power
TTITLE1=Said I wasn´t gonna tell nobody
TTITLE2=Peace in the valley
TTITLE3=Angels
TTITLE4=You never know
TTITLE5=He´s leading me on
TTITLE6=Sweet Jesus
TTITLE7=Sweet wisdom
TTITLE8=Tell the world
TTITLE9=When we overcome
EXTD=
EXTT0=
EXTT1=
EXTT2=
EXTT3=
EXTT4=
EXTT5=
EXTT6=
EXTT7=
EXTT8=
EXTT9=
PLAYORDER=
